PathFileType	4	(X/Y/Z)	C:\Users\WrightLab\Desktop\Jo\P1.2Trial36.trc
DataRate	CameraRate	NumFrames	NumMarkers	Units	OrigDataRate	OrigDataStartFrame	OrigNumFrames
100.00	100.00	      38	19	mm	100.00	901	      1029
Frame#	Time	Headset_Front			Headset_Back			Headset_Left			Headset_Right			Left_Shoulder			Right_Shoulder			Sternum			C7			Left Elbow			Right Elbow			Left Wrist			Right Wrist			Left ASIS			Right ASIS			S2			Left Knee			Right Knee			Left Ankle			Right Ankle			
		X1	Y1	Z1	X2	Y2	Z2	X3	Y3	Z3	X4	Y4	Z4	X5	Y5	Z5	X6	Y6	Z6	X7	Y7	Z7	X8	Y8	Z8	X9	Y9	Z9	X10	Y10	Z10	X11	Y11	Z11	X12	Y12	Z12	X13	Y13	Z13	X14	Y14	Z14	X15	Y15	Z15	X16	Y16	Z16	X17	Y17	Z17	X18	Y18	Z18	X19	Y19	Z19	

901	9.000													-818.80756	1178.96814	-1192.15759	-412.33911	1193.44385	-1057.08105	-571.28436	1134.99658	-1262.58276	-652.67633	1241.16455	-1028.95605	-877.47839	903.67480	-1094.10254	-346.17975	941.36682	-999.73004				-234.57634	706.27350	-1100.33740							-659.95642	836.27264	-1011.96509				-436.47675	371.71408	-1072.77930							
902	9.010													-816.79559	1179.82690	-1208.20251	-413.87372	1195.66028	-1064.99500	-569.03156	1137.00647	-1272.70605	-653.84241	1242.04395	-1039.90784	-875.18115	902.61188	-1111.94006	-349.67178	943.23657	-1006.20831				-238.77393	706.91473	-1099.25830							-660.07050	837.29138	-1023.25153				-434.35785	374.14966	-1084.77795							
903	9.020													-816.30493	1180.39587	-1220.41907	-414.43250	1197.96326	-1072.56946	-566.77881	1139.05713	-1283.24451	-655.96460	1243.79407	-1051.46265	-874.85168	903.40088	-1127.80627	-353.51563	946.37793	-1012.76489				-240.95824	708.16815	-1097.56470							-660.11639	838.65363	-1034.67847				-432.02478	374.89355	-1095.44019							
904	9.030													-814.58270	1181.47473	-1234.63025	-415.68890	1201.03052	-1081.07581	-564.27924	1141.05347	-1292.93762	-656.88068	1245.59998	-1064.21033	-872.89795	903.26257	-1147.70789	-356.09793	949.99194	-1013.40454				-245.30394	709.36896	-1096.23572							-660.00226	840.46332	-1043.47668				-429.31802	376.75818	-1108.41553							
905	9.040													-812.17218	1183.60913	-1251.22827	-416.23218	1204.10193	-1089.75378	-561.50006	1143.31116	-1302.99780	-658.21136	1247.48413	-1075.44141	-870.78027	904.64673	-1162.23706	-360.23309	952.72284	-1021.36224				-249.13435	710.79846	-1094.19836							-659.72644	843.99109	-1051.65027				-429.39636	379.40543	-1123.23206							
906	9.050													-809.38684	1184.37012	-1265.11755	-417.06296	1207.87354	-1099.63818	-558.54431	1145.17590	-1312.56775	-660.10693	1249.69971	-1087.57300	-868.59491	905.13922	-1178.60095	-362.47302	957.27509	-1027.75696				-252.13837	712.24048	-1092.82642							-661.47729	846.22900	-1063.35815				-427.65329	380.40527	-1134.20898							
907	9.060													-806.37628	1187.17737	-1282.28101	-418.02966	1210.39136	-1106.22168	-555.27039	1146.69678	-1321.54932	-661.51520	1251.49341	-1099.12683	-866.49347	906.96820	-1195.68127	-365.93420	959.29669	-1033.37939				-256.86731	714.36957	-1092.70557							-661.79657	847.42566	-1072.74841				-423.86877	382.25043	-1147.16797							
908	9.070													-803.23254	1188.80408	-1296.67908							-661.00922	1253.93420	-1111.15332	-865.61639	907.73767	-1214.23718	-366.87442	963.10992	-1036.00317				-259.80637	717.10583	-1090.31458							-663.93134	849.50574	-1084.62952				-419.64661	386.02026	-1161.27637							
909	9.080													-799.57605	1190.39038	-1310.96973							-661.65631	1255.65137	-1123.20715	-864.58276	912.54828	-1228.57251	-369.13345	965.55353	-1040.63696				-261.42334	720.71344	-1090.67285							-666.00146	851.44263	-1092.20251				-417.58023	385.23007	-1172.79724							
910	9.090													-795.06152	1193.34705	-1328.76294							-663.70251	1256.76074	-1133.67395	-864.60498	913.72906	-1248.04956	-370.43314	968.39734	-1044.11475				-263.10794	723.18756	-1091.12146							-666.98132	854.36816	-1101.77161				-411.58090	387.53857	-1187.73621							
911	9.100													-790.73285	1194.37390	-1342.28833							-663.48547	1258.86963	-1145.91943	-862.87323	915.59021	-1264.24841	-371.89120	971.25793	-1046.32678				-265.24173	724.76477	-1091.52258							-669.05896	855.82520	-1111.68164				-403.73715	391.04169	-1202.70166							
912	9.110													-785.79291	1196.65076	-1358.73511							-662.54028	1260.69934	-1157.47778	-860.63434	917.38922	-1283.41589	-373.47070	972.71960	-1049.49353				-265.89926	727.69537	-1092.15857							-670.32336	856.68195	-1121.04492				-396.33081	393.34152	-1215.71289							
913	9.120													-780.31018	1198.88611	-1375.17920													-375.57593	975.36102	-1052.57666				-265.80374	729.55988	-1092.71436							-673.38910	859.30518	-1131.76770				-387.75497	395.66089	-1230.31018							
914	9.130													-774.82910	1199.28955	-1387.11426													-377.01724	976.99170	-1056.62500				-265.66147	730.91901	-1092.89453							-674.27496	861.76697	-1139.70215				-379.72314	396.52829	-1243.14136							
915	9.140													-768.48877	1201.86438	-1404.22083													-380.43408	977.28644	-1060.07056				-265.76581	732.20435	-1093.49426							-677.72418	864.15253	-1148.87952				-371.75900	396.78809	-1256.82935							
916	9.150													-762.22632	1203.50476	-1418.66748													-382.45279	979.10150	-1061.48596				-266.33804	734.35474	-1093.07275							-678.40973	866.57953	-1156.11597				-359.84048	399.73721	-1272.32947							
917	9.160													-755.73859	1204.78918	-1432.03821													-385.79404	980.14764	-1064.85596				-266.47928	735.24866	-1093.53796							-681.76648	868.55042	-1167.28650				-352.59366	402.05435	-1282.86523							
918	9.170													-748.98724	1205.67273	-1444.23633													-388.46899	981.71112	-1066.14441				-267.06714	737.35443	-1092.88342							-682.51398	870.60791	-1175.81641				-342.08084	406.98441	-1297.01697							
919	9.180																												-391.71783	982.82404	-1068.66382				-268.89508	739.06433	-1093.09375							-684.92181	872.78687	-1190.51636				-331.59143	413.71158	-1307.09729							
920	9.190																												-395.79782	984.86688	-1070.67407				-270.18375	740.47766	-1095.00012							-685.68134	876.09735	-1192.78528				-321.90460	421.61209	-1315.18127							
921	9.200																												-398.09036	985.10950	-1072.63440				-271.32645	741.96222	-1094.69910							-686.47699	879.10559	-1201.11047				-315.41971	429.87329	-1320.85071							
922	9.210																												-403.25665	985.89539	-1076.85864				-272.50598	742.75989	-1094.59387							-687.89551	879.22656	-1214.65662				-311.89832	434.26401	-1329.10754							
923	9.220																												-404.89471	987.05273	-1077.42444				-274.92834	744.17517	-1094.56934							-687.20636	881.96082	-1222.31506				-310.01825	437.73175	-1334.12903							
924	9.230																												-408.40930	987.24249	-1081.63013				-276.73651	744.94281	-1094.31348							-686.91901	883.26990	-1226.53198				-308.04846	438.48743	-1339.84631							
925	9.240																												-411.23978	987.49634	-1083.91479				-278.12466	745.45581	-1095.16553							-685.33612	882.98047	-1235.08545				-306.21375	438.63330	-1346.76624							
926	9.250																												-414.49298	988.83313	-1085.75317				-281.07324	746.92816	-1095.41150							-684.24805	884.44421	-1241.31360				-305.53845	439.51218	-1350.65576							
927	9.260																												-416.79990	989.09955	-1089.29834				-282.82016	747.38287	-1095.98035							-683.41290	884.39532	-1246.24011				-302.31320	441.32578	-1356.17798							
928	9.270																												-418.41278	990.21619	-1090.95093				-287.18793	747.06372	-1095.44434							-681.66443	883.34119	-1255.92957				-299.50565	443.53815	-1359.11084							
929	9.280																												-419.13370	990.54065	-1090.45496				-289.49561	745.27258	-1094.88818							-680.55212	882.73639	-1263.81885				-297.03604	443.78644	-1361.68506							
930	9.290																												-423.37973	988.97241	-1099.56543				-292.33752	746.36298	-1092.86914							-679.26398	880.69800	-1273.27515				-295.62793	444.72806	-1363.77734							
931	9.300																												-424.65582	987.76678	-1104.28943				-296.16745	744.65088	-1094.67993							-677.84235	879.31683	-1281.83044				-293.14224	445.54285	-1368.83020							
932	9.310																												-427.13892	987.91992	-1106.37390				-297.83420	744.57422	-1094.81604							-674.99225	879.76984	-1291.84863				-292.84479	444.61618	-1370.62500							
933	9.320																												-428.62527	987.69006	-1109.55408				-301.37967	742.61890	-1096.55786							-672.34338	879.25293	-1297.87988				-291.87674	443.22510	-1373.43628							
934	9.330																												-429.79898	987.11646	-1112.56506				-304.94562	740.59302	-1098.72107							-669.86121	878.70721	-1306.26697				-291.01608	441.08884	-1376.06738							
935	9.340																												-430.58124	987.18732	-1114.89050				-307.66000	740.07928	-1099.31848							-667.10718	877.58429	-1316.76685				-291.67731	438.54880	-1377.91272							
936	9.350																												-431.78134	985.20319	-1119.71729				-311.14279	737.97595	-1100.89087							-662.08643	875.14270	-1326.21033				-290.89529	435.55756	-1379.81982							
937	9.360																												-433.00293	984.04773	-1124.49878				-313.37057	737.17896	-1102.69421							-658.31555	876.96844	-1325.28711				-290.18396	433.24939	-1381.99658							
938	9.370																												-433.22552	983.58606	-1126.57532				-315.70532	736.05957	-1103.03235							-654.10266	875.89807	-1336.43774				-289.45001	430.60437	-1385.68408							
